<?xml version="1.0" standalone="no"?>
<!DOCTYPE svg PUBLIC "-//W3C//DTD SVG 20010904//EN"
 "http://www.w3.org/TR/2001/REC-SVG-20010904/DTD/svg10.dtd">
<svg version="1.0" xmlns="http://www.w3.org/2000/svg"
 width="349.000000pt" height="349.000000pt" viewBox="0 0 349.000000 349.000000"
 preserveAspectRatio="xMidYMid meet">
<metadata>
Created by potrace 1.14, written by Peter Selinger 2001-2017
</metadata>
<g transform="translate(0.000000,349.000000) scale(0.100000,-0.100000)"
fill="#000000" stroke="none">
<path d="M1472 3410 c-85 -23 -225 -94 -315 -162 -91 -68 -229 -215 -292 -312
-225 -345 -323 -740 -316 -1278 l1 -48 185 0 184 0 -4 28 c-46 263 -56 383
-36 434 11 29 68 77 100 83 11 2 41 16 66 30 26 16 52 24 62 21 14 -6 13 -10
-7 -31 -13 -14 -20 -28 -17 -32 4 -3 34 2 66 12 61 18 156 16 274 -6 32 -6 55
-5 68 2 29 15 10 33 -49 49 -26 7 -50 16 -54 19 -4 3 -1 80 7 171 18 216 26
265 36 248 7 -10 9 -10 9 1 0 8 3 12 6 8 3 -3 10 -81 14 -174 5 -93 12 -177
16 -186 3 -9 14 -17 24 -17 13 0 20 -9 22 -27 2 -19 10 -29 23 -31 28 -4 45
56 60 198 10 104 21 100 28 -11 6 -93 9 -105 32 -126 14 -13 25 -28 25 -33 0
-6 33 -10 73 -10 66 0 172 -12 239 -26 24 -5 26 -8 15 -24 -22 -36 2 -44 85
-32 147 23 210 25 258 8 50 -18 80 -20 80 -7 0 5 18 11 41 15 38 6 45 4 94
-38 l52 -45 7 -108 c7 -100 1 -164 -29 -335 l-4 -28 175 0 176 0 -6 133 c-27
550 -91 836 -248 1110 -166 291 -424 508 -668 563 -67 16 -74 15 -160 -6 l-90
-22 -83 21 c-100 25 -130 26 -225 1z"/>
<path d="M1220 1991 c0 -6 -16 -13 -35 -17 -19 -3 -38 -10 -41 -15 -3 -5 -11
-9 -19 -9 -20 0 -75 -59 -75 -81 0 -10 -4 -19 -9 -19 -5 0 4 -14 20 -31 16
-17 29 -35 29 -39 0 -5 15 -19 33 -31 l32 -22 -31 34 c-58 66 -58 65 -35 103
23 36 52 59 88 68 22 6 22 5 8 -23 -35 -67 -2 -166 67 -202 86 -44 196 10 215
105 l8 42 22 -23 c12 -13 29 -37 37 -55 14 -28 16 -28 16 -8 0 51 -68 146
-133 183 -23 13 -44 24 -47 25 -3 0 -27 4 -55 8 -27 4 -60 9 -72 12 -13 2 -23
0 -23 -5z m71 -67 c17 -21 0 -49 -32 -49 -27 0 -37 28 -19 50 16 19 34 19 51
-1z"/>
<path d="M2225 1988 c-33 -6 -68 -11 -77 -11 -10 -1 -18 -4 -18 -7 0 -3 -15
-14 -34 -24 -53 -28 -126 -128 -126 -172 0 -11 11 -2 29 24 41 56 48 57 55 13
20 -125 194 -162 269 -57 23 33 30 116 12 164 l-8 24 39 -20 c21 -12 50 -36
62 -56 l24 -35 -21 -30 c-12 -17 -36 -42 -54 -56 l-32 -26 30 14 c44 22 99 95
97 128 -2 29 -54 89 -77 89 -8 0 -16 4 -19 9 -3 5 -22 12 -41 15 -19 4 -35 11
-35 16 0 6 -3 9 -7 9 -5 -1 -35 -6 -68 -11z m-57 -85 c4 -26 -32 -40 -55 -22
-13 12 -13 15 7 31 27 22 44 19 48 -9z"/>
<path d="M509 93 c-3 -36 2 -48 27 -71 l25 -22 1193 0 c1192 0 1193 0 1220 21
14 11 26 29 26 41 0 19 0 19 -34 -2 -34 -21 -37 -21 -803 -20 -422 1 -939 1
-1148 1 -209 0 -398 4 -420 9 -22 5 -50 20 -62 35 -20 22 -23 23 -24 8z"/>
</g>
</svg>
